# xmcd
#
# Track frame offsets:
#	150
#	13717
#	25567
#	36961
#	42172
#	61384
#	90467
#	105392
#
# Disc length: 1726 seconds
#
# Revision: 1
# Processed by: cddbd v1.5.2PL0 Copyright (c) Steve Scherf et al.
# Submitted via: audiograbber 1.83.01
#
DISCID=5406bc08
DTITLE=Dan Friel - Ghost Town
DYEAR=2008
DGENRE=Noise
TTITLE0=Ghost Town (Pt. 1)
TTITLE1=Desert Song
TTITLE2=One Legged Cowboy
TTITLE3=Appliances Of Bremen
TTITLE4=Buzzards
TTITLE5=Ghost Town (Pt. 2)
TTITLE6=Singing Sand
TTITLE7=Horse Heaven
EXTD=
EXTT0=
EXTT1=
EXTT2=
EXTT3=
EXTT4=
EXTT5=
EXTT6=
EXTT7=
PLAYORDER=
